<svg width="32" height="32" viewBox="0 0 32 32" fill="none" xmlns="http://www.w3.org/2000/svg">
<rect x="0.5" y="0.5" width="31" height="31" rx="15.5" stroke="#1063A7"/>
<rect x="0.5" y="0.5" width="31" height="31" rx="15.5" stroke="url(#paint0_linear_597_161)"/>
<path d="M24 8.14282H8C6.9 8.14282 6.01 9.02675 6.01 10.1071L6 21.8928C6 22.9732 6.9 23.8571 8 23.8571H24C25.1 23.8571 26 22.9732 26 21.8928V10.1071C26 9.02675 25.1 8.14282 24 8.14282ZM23.6 12.3169L16.53 16.658C16.21 16.8544 15.79 16.8544 15.47 16.658L8.4 12.3169C8.29973 12.2616 8.21192 12.187 8.14189 12.0974C8.07186 12.0078 8.02106 11.9052 7.99258 11.7958C7.96409 11.6864 7.9585 11.5724 7.97616 11.4608C7.99381 11.3492 8.03434 11.2423 8.09528 11.1465C8.15623 11.0507 8.23632 10.9681 8.33073 10.9036C8.42513 10.8391 8.53187 10.7941 8.6445 10.7713C8.75712 10.7485 8.87328 10.7484 8.98595 10.771C9.09863 10.7936 9.20546 10.8383 9.3 10.9026L16 15.0178L22.7 10.9026C22.7945 10.8383 22.9014 10.7936 23.014 10.771C23.1267 10.7484 23.2429 10.7485 23.3555 10.7713C23.4681 10.7941 23.5749 10.8391 23.6693 10.9036C23.7637 10.9681 23.8438 11.0507 23.9047 11.1465C23.9657 11.2423 24.0062 11.3492 24.0238 11.4608C24.0415 11.5724 24.0359 11.6864 24.0074 11.7958C23.9789 11.9052 23.9281 12.0078 23.8581 12.0974C23.7881 12.187 23.7003 12.2616 23.6 12.3169Z" fill="#1063A7"/>
<defs>
<linearGradient id="paint0_linear_597_161" x1="16" y1="0" x2="16" y2="32" gradientUnits="userSpaceOnUse">
<stop stop-color="#CCE8FF"/>
<stop offset="1" stop-color="#1063A7"/>
</linearGradient>
</defs>
</svg>
