<svg width="32" height="32" viewBox="0 0 32 32" fill="none" xmlns="http://www.w3.org/2000/svg">
<rect x="0.5" y="0.5" width="31" height="31" rx="7.5" fill="#1063A7" fill-opacity="0.04"/>
<rect x="0.5" y="0.5" width="31" height="31" rx="7.5" stroke="white" stroke-opacity="0.24"/>
<rect x="0.5" y="0.5" width="31" height="31" rx="7.5" stroke="url(#paint0_linear_597_144)"/>
<path d="M24 8H8C6.9 8 6.01 8.9 6.01 10L6 22C6 23.1 6.9 24 8 24H24C25.1 24 26 23.1 26 22V10C26 8.9 25.1 8 24 8ZM24 12L16 17L8 12V10L16 15L24 10V12Z" fill="#1063A7"/>
<defs>
<linearGradient id="paint0_linear_597_144" x1="16" y1="0" x2="16" y2="32" gradientUnits="userSpaceOnUse">
<stop stop-color="#CCE8FF"/>
<stop offset="1" stop-color="#1063A7"/>
</linearGradient>
</defs>
</svg>
