<svg width="26" height="26" viewBox="0 0 26 26" fill="none" xmlns="http://www.w3.org/2000/svg">
<rect x="0.5" y="0.5" width="25" height="25" rx="12.5" stroke="#333333"/>
<path d="M18.6 7.5H7.4C6.63 7.5 6.007 8.11875 6.007 8.875L6 17.125C6 17.8813 6.63 18.5 7.4 18.5H18.6C19.37 18.5 20 17.8813 20 17.125V8.875C20 8.11875 19.37 7.5 18.6 7.5ZM18.32 10.4219L13.371 13.4606C13.147 13.5981 12.853 13.5981 12.629 13.4606L7.68 10.4219C7.60981 10.3832 7.54834 10.3309 7.49932 10.2682C7.4503 10.2055 7.41474 10.1337 7.3948 10.0571C7.37486 9.98048 7.37095 9.90071 7.38331 9.82259C7.39567 9.74447 7.42404 9.66962 7.4667 9.60258C7.50936 9.53554 7.56543 9.4777 7.63151 9.43256C7.69759 9.38742 7.77231 9.35591 7.85115 9.33996C7.92998 9.324 8.0113 9.32391 8.09017 9.33971C8.16904 9.35551 8.24382 9.38687 8.31 9.43187L13 12.3125L17.69 9.43187C17.7562 9.38687 17.831 9.35551 17.9098 9.33971C17.9887 9.32391 18.07 9.324 18.1489 9.33996C18.2277 9.35591 18.3024 9.38742 18.3685 9.43256C18.4346 9.4777 18.4906 9.53554 18.5333 9.60258C18.576 9.66962 18.6043 9.74447 18.6167 9.82259C18.629 9.90071 18.6251 9.98048 18.6052 10.0571C18.5853 10.1337 18.5497 10.2055 18.5007 10.2682C18.4517 10.3309 18.3902 10.3832 18.32 10.4219Z" fill="#333333"/>
</svg>
