<svg width="32" height="32" viewBox="0 0 32 32" fill="none" xmlns="http://www.w3.org/2000/svg">
<rect x="0.5" y="0.5" width="31" height="31" rx="15.5" stroke="#1063A7"/>
<rect x="0.5" y="0.5" width="31" height="31" rx="15.5" stroke="url(#paint0_linear_597_151)"/>
<path d="M16 15.5C15.337 15.5 14.7011 15.2366 14.2322 14.7678C13.7634 14.2989 13.5 13.663 13.5 13C13.5 12.337 13.7634 11.7011 14.2322 11.2322C14.7011 10.7634 15.337 10.5 16 10.5C16.663 10.5 17.2989 10.7634 17.7678 11.2322C18.2366 11.7011 18.5 12.337 18.5 13C18.5 13.3283 18.4353 13.6534 18.3097 13.9567C18.1841 14.26 17.9999 14.5356 17.7678 14.7678C17.5356 14.9999 17.26 15.1841 16.9567 15.3097C16.6534 15.4353 16.3283 15.5 16 15.5ZM16 6C14.1435 6 12.363 6.7375 11.0503 8.05025C9.7375 9.36301 9 11.1435 9 13C9 18.25 16 26 16 26C16 26 23 18.25 23 13C23 11.1435 22.2625 9.36301 20.9497 8.05025C19.637 6.7375 17.8565 6 16 6Z" fill="#1063A7"/>
<defs>
<linearGradient id="paint0_linear_597_151" x1="16" y1="0" x2="16" y2="32" gradientUnits="userSpaceOnUse">
<stop stop-color="#CCE8FF"/>
<stop offset="1" stop-color="#1063A7"/>
</linearGradient>
</defs>
</svg>
