<svg width="26" height="26" viewBox="0 0 26 26" fill="none" xmlns="http://www.w3.org/2000/svg">
<rect x="0.5" y="0.5" width="25" height="25" rx="12.5" stroke="#333333"/>
<path fill-rule="evenodd" clip-rule="evenodd" d="M16.414 20.5998C15.334 20.5601 12.2733 20.1371 9.06775 16.9324C5.863 13.7269 5.44075 10.6669 5.40025 9.5861C5.34025 7.9391 6.60175 6.33935 8.059 5.7146C8.23448 5.63883 8.42665 5.60998 8.61665 5.63088C8.80664 5.65179 8.98794 5.72173 9.14275 5.83385C10.3428 6.70835 11.1707 8.03135 11.8818 9.0716C12.0382 9.30015 12.1051 9.57826 12.0697 9.85295C12.0343 10.1276 11.899 10.3797 11.6898 10.5611L10.2265 11.6479C10.1558 11.6989 10.106 11.7739 10.0865 11.8588C10.0669 11.9438 10.0788 12.033 10.12 12.1099C10.4515 12.7121 11.041 13.6091 11.716 14.2841C12.391 14.9591 13.3307 15.5876 13.975 15.9566C14.0558 16.0019 14.1509 16.0146 14.2407 15.992C14.3305 15.9694 14.4083 15.9133 14.458 15.8351L15.4105 14.3854C15.5856 14.1527 15.8439 13.9969 16.1314 13.9505C16.4188 13.9041 16.7131 13.9707 16.9525 14.1364C18.0078 14.8669 19.2393 15.6806 20.1407 16.8349C20.262 16.9908 20.3391 17.1764 20.364 17.3723C20.389 17.5683 20.3608 17.7673 20.2825 17.9486C19.6547 19.4134 18.0662 20.6606 16.414 20.5998Z" fill="#333333"/>
</svg>
