<svg width="66" height="64" viewBox="0 0 66 64" fill="none" xmlns="http://www.w3.org/2000/svg">
<rect x="0.00244141" width="65.9952" height="64" rx="8" fill="#1063A7" fill-opacity="0.04"/>
<rect x="0.502441" y="0.5" width="64.9952" height="63" rx="7.5" stroke="white" stroke-opacity="0.24"/>
<path d="M46.9918 29.3634C46.9912 29.656 46.8746 29.9364 46.6675 30.1432C46.4604 30.3499 46.1797 30.466 45.8871 30.466H42.8168V32.4358H45.8892C46.0379 32.4293 46.1864 32.453 46.3257 32.5054C46.465 32.5579 46.5922 32.6379 46.6998 32.7409C46.8073 32.8438 46.8928 32.9674 46.9513 33.1043C47.0097 33.2412 47.0399 33.3885 47.0399 33.5373C47.0399 33.6861 47.0097 33.8334 46.9513 33.9703C46.8928 34.1072 46.8073 34.2308 46.6998 34.3337C46.5922 34.4367 46.465 34.5168 46.3257 34.5692C46.1864 34.6216 46.0379 34.6453 45.8892 34.6388H41.7122C41.4214 34.6366 41.1432 34.5198 40.938 34.3138C40.7328 34.1078 40.617 33.8292 40.6159 33.5384V25.1885C40.6159 24.5857 41.1095 24.0859 41.7185 24.0859H45.8934C46.1741 24.1038 46.4373 24.228 46.6295 24.4332C46.8217 24.6384 46.9285 24.9093 46.9279 25.1904C46.9274 25.4716 46.8196 25.742 46.6266 25.9465C46.4336 26.151 46.1699 26.2742 45.8892 26.291H42.8168V28.2609H45.8892C46.4983 28.2609 46.9918 28.7586 46.9918 29.3634ZM38.3836 34.5821C38.2712 34.6191 38.1533 34.6369 38.035 34.6346C37.8622 34.6376 37.6913 34.5995 37.5361 34.5236C37.381 34.4477 37.246 34.336 37.1424 34.1978L32.8667 28.3932V33.5384C32.8457 33.8156 32.7207 34.0746 32.5169 34.2636C32.313 34.4526 32.0453 34.5576 31.7673 34.5576C31.4893 34.5576 31.2216 34.4526 31.0177 34.2636C30.8138 34.0746 30.6889 33.8156 30.6679 33.5384V25.1885C30.6671 25.0445 30.6947 24.9018 30.7492 24.7686C30.8037 24.6354 30.884 24.5143 30.9855 24.4122C31.087 24.3101 31.2077 24.2291 31.3406 24.1739C31.4735 24.1186 31.616 24.0901 31.7599 24.0901C32.1001 24.0901 32.4152 24.2707 32.6252 24.5332L36.9345 30.3609V25.1885C36.9345 24.5857 37.428 24.0859 38.0371 24.0859C38.6398 24.0859 39.1396 24.5857 39.1396 25.1885V33.5384C39.1406 33.77 39.0679 33.996 38.932 34.1836C38.7961 34.3713 38.604 34.5108 38.3836 34.5821ZM27.9882 34.6388C27.6971 34.6371 27.4183 34.5206 27.2127 34.3145C27.007 34.1085 26.891 33.8295 26.8899 33.5384V25.1885C26.8899 24.5857 27.3834 24.0859 27.9924 24.0859C28.5993 24.0859 29.0928 24.5857 29.0928 25.1885V33.5384C29.0912 33.8304 28.9741 34.11 28.7672 34.3161C28.5603 34.5223 28.2803 34.6383 27.9882 34.6388ZM24.7751 34.6388H20.6043C20.3131 34.6361 20.0346 34.5193 19.8285 34.3136C19.6224 34.1079 19.5051 33.8296 19.5018 33.5384V25.1885C19.5018 24.5857 20.0016 24.0859 20.6043 24.0859C21.2134 24.0859 21.7069 24.5857 21.7069 25.1885V32.4337H24.7814C25.0738 32.4337 25.3542 32.5499 25.561 32.7566C25.7678 32.9634 25.8839 33.2438 25.8839 33.5363C25.8839 33.8287 25.7678 34.1091 25.561 34.3159C25.3542 34.5226 25.0738 34.6388 24.7814 34.6388M33.0032 12C21.4255 12 12.0024 19.6506 12.0024 29.0484C12.0024 37.4697 19.4745 44.5238 29.5654 45.8637C30.2479 46.0065 31.1803 46.3152 31.4155 46.8969C31.6255 47.4219 31.5541 48.2368 31.4827 48.787L31.195 50.5721C31.1173 51.0971 30.775 52.6469 33.0305 51.6998C35.2902 50.7569 45.1353 44.5637 49.5455 39.4942C52.557 36.1866 53.9976 32.8012 53.9976 29.0484C53.9976 19.6506 44.5725 12 32.9969 12" fill="#1063A7"/>
</svg>
