<svg width="97" height="96" viewBox="0 0 97 96" fill="none" xmlns="http://www.w3.org/2000/svg">
<path d="M95.0437 0.00409089C94.2419 0.00409089 93.5873 0.658632 93.5873 1.46042C93.5873 8.67671 87.7128 14.5513 80.4965 14.5513L16.4991 14.5472C7.67095 14.5472 0.5 21.7185 0.5 30.5463V94.5437C0.5 95.3455 1.15454 96 1.95633 96C2.75812 96 3.41266 95.3455 3.41266 94.5437C3.41266 87.3274 9.2872 81.4528 16.5035 81.4528H80.5009C89.329 81.4528 96.5 74.2815 96.5 65.4538L96.4959 1.45633C96.4959 0.65451 95.8414 0 95.0396 0L95.0437 0.00409089ZM15.0419 65.4583V24.729C15.0419 23.9272 15.6965 23.2727 16.4983 23.2727C17.3001 23.2727 17.9546 23.9272 17.9546 24.729V65.4583C17.9546 66.2601 17.3 66.9146 16.4983 66.9146C15.6964 66.9146 15.0419 66.26 15.0419 65.4583ZM29.5895 72.7277C29.5895 71.9259 30.244 71.2714 31.0458 71.2714C31.8476 71.2714 32.5022 71.926 32.5022 72.7277V74.1841C32.5022 74.9859 31.8476 75.6404 31.0458 75.6404C30.244 75.6404 29.5895 74.9859 29.5895 74.1841V72.7277ZM20.8596 29.0944H23.7682C24.57 29.0944 25.2245 29.749 25.2245 30.5508C25.2245 31.3526 24.57 32.0071 23.7682 32.0071H20.8596C20.0578 32.0071 19.4033 31.3526 19.4033 30.5508C19.4033 29.7489 20.0578 29.0944 20.8596 29.0944ZM19.4074 26.1859C19.4074 25.3841 20.0619 24.7295 20.8637 24.7295H22.32C23.1218 24.7295 23.7763 25.3841 23.7763 26.1859C23.7763 26.9876 23.1218 27.6422 22.32 27.6422H20.8637C20.0619 27.6422 19.4074 26.9876 19.4074 26.1859ZM20.8596 33.4554H22.3159C23.1177 33.4554 23.7723 34.1099 23.7723 34.9117C23.7723 35.7135 23.1177 36.368 22.3159 36.368H20.8596C20.0578 36.368 19.4033 35.7135 19.4033 34.9117C19.4033 34.1099 20.0578 33.4554 20.8596 33.4554ZM20.8596 37.8204H22.3159C23.1177 37.8204 23.7723 38.4749 23.7723 39.2767C23.7723 40.0785 23.1177 40.733 22.3159 40.733H20.8596C20.0578 40.733 19.4033 40.0785 19.4033 39.2767C19.4033 38.4749 20.0578 37.8204 20.8596 37.8204ZM20.8596 42.1854H22.3159C23.1177 42.1854 23.7723 42.8399 23.7723 43.6417C23.7723 44.4435 23.1177 45.098 22.3159 45.098H20.8596C20.0578 45.098 19.4033 44.4435 19.4033 43.6417C19.4033 42.8399 20.0578 42.1854 20.8596 42.1854ZM20.8596 46.5463H23.7682C24.57 46.5463 25.2245 47.2008 25.2245 48.0026C25.2245 48.8044 24.57 49.459 23.7682 49.459H20.8596C20.0578 49.459 19.4033 48.8044 19.4033 48.0026C19.4033 47.2008 20.0578 46.5463 20.8596 46.5463ZM20.8596 50.9113H22.3159C23.1177 50.9113 23.7723 51.5658 23.7723 52.3676C23.7723 53.1694 23.1177 53.824 22.3159 53.824H20.8596C20.0578 53.824 19.4033 53.1694 19.4033 52.3676C19.4033 51.5658 20.0578 50.9113 20.8596 50.9113ZM20.8596 55.2763H22.3159C23.1177 55.2763 23.7723 55.9309 23.7723 56.7326C23.7723 57.5344 23.1177 58.189 22.3159 58.189H20.8596C20.0578 58.189 19.4033 57.5344 19.4033 56.7326C19.4033 55.9308 20.0578 55.2763 20.8596 55.2763ZM20.8596 59.6372H22.3159C23.1177 59.6372 23.7723 60.2918 23.7723 61.0936C23.7723 61.8954 23.1177 62.5499 22.3159 62.5499H20.8596C20.0578 62.5499 19.4033 61.8954 19.4033 61.0936C19.4033 60.2918 20.0578 59.6372 20.8596 59.6372ZM20.8596 64.0022H23.7682C24.57 64.0022 25.2245 64.6568 25.2245 65.4586C25.2245 66.2604 24.57 66.9149 23.7682 66.9149H20.8596C20.0578 66.9149 19.4033 66.2604 19.4033 65.4586C19.4033 64.6568 20.0578 64.0022 20.8596 64.0022ZM25.2246 71.2758C25.2246 70.474 25.8791 69.8195 26.6809 69.8195C27.4827 69.8195 28.1373 70.474 28.1373 71.2758V74.1844C28.1373 74.9862 27.4827 75.6407 26.6809 75.6407C25.8791 75.6407 25.2246 74.9862 25.2246 74.1844V71.2758ZM33.9504 74.1844V72.7281C33.9504 71.9263 34.605 71.2717 35.4068 71.2717C36.2085 71.2717 36.8631 71.9263 36.8631 72.7281V74.1844C36.8631 74.9862 36.2085 75.6407 35.4068 75.6407C34.605 75.6407 33.9504 74.9862 33.9504 74.1844ZM38.3154 74.1844V72.7281C38.3154 71.9263 38.97 71.2717 39.7718 71.2717C40.5736 71.2717 41.2281 71.9263 41.2281 72.7281V74.1844C41.2281 74.9862 40.5736 75.6407 39.7718 75.6407C38.97 75.6407 38.3154 74.9862 38.3154 74.1844ZM42.6804 74.1844V71.2758C42.6804 70.474 43.335 69.8195 44.1368 69.8195C44.9386 69.8195 45.5931 70.474 45.5931 71.2758V74.1844C45.5931 74.9862 44.9386 75.6407 44.1368 75.6407C43.335 75.6407 42.6804 74.9862 42.6804 74.1844ZM47.0414 74.1844V72.7281C47.0414 71.9263 47.6959 71.2717 48.4977 71.2717C49.2995 71.2717 49.954 71.9263 49.954 72.7281V74.1844C49.954 74.9862 49.2995 75.6407 48.4977 75.6407C47.6959 75.6407 47.0414 74.9862 47.0414 74.1844ZM51.4064 74.1844V72.7281C51.4064 71.9263 52.0609 71.2717 52.8627 71.2717C53.6645 71.2717 54.319 71.9263 54.319 72.7281V74.1844C54.319 74.9862 53.6645 75.6407 52.8627 75.6407C52.0609 75.6407 51.4064 74.9862 51.4064 74.1844ZM55.7714 74.1844V72.7281C55.7714 71.9263 56.4259 71.2717 57.2277 71.2717C58.0295 71.2717 58.684 71.9263 58.684 72.7281V74.1844C58.684 74.9862 58.0295 75.6407 57.2277 75.6407C56.4259 75.6407 55.7714 74.9862 55.7714 74.1844ZM60.1323 74.1844V71.2758C60.1323 70.474 60.7868 69.8195 61.5886 69.8195C62.3904 69.8195 63.045 70.474 63.045 71.2758V74.1844C63.045 74.9862 62.3904 75.6407 61.5886 75.6407C60.7868 75.6407 60.1323 74.9862 60.1323 74.1844ZM64.4973 74.1844V72.7281C64.4973 71.9263 65.1519 71.2717 65.9536 71.2717C66.7554 71.2717 67.41 71.9263 67.41 72.7281V74.1844C67.41 74.9862 66.7554 75.6407 65.9536 75.6407C65.1519 75.6407 64.4973 74.9862 64.4973 74.1844ZM68.8623 74.1844V72.7281C68.8623 71.9263 69.5169 71.2717 70.3186 71.2717C71.1205 71.2717 71.775 71.9263 71.775 72.7281V74.1844C71.775 74.9862 71.1204 75.6407 70.3186 75.6407C69.5168 75.6407 68.8623 74.9862 68.8623 74.1844ZM73.2232 74.1844V72.7281C73.2232 71.9263 73.8778 71.2717 74.6796 71.2717C75.4814 71.2717 76.1359 71.9263 76.1359 72.7281V74.1844C76.1359 74.9862 75.4814 75.6407 74.6796 75.6407C73.8778 75.6407 73.2232 74.9862 73.2232 74.1844ZM79.0446 75.6407C78.2428 75.6407 77.5882 74.9862 77.5882 74.1844V71.2758C77.5882 70.474 78.2428 69.8195 79.0446 69.8195C79.8464 69.8195 80.5009 70.474 80.5009 71.2758V74.1844C80.5009 74.9862 79.8464 75.6407 79.0446 75.6407ZM80.4968 48.0023H77.5882C76.7864 48.0023 76.1319 47.3478 76.1319 46.546C76.1319 45.7769 76.7415 45.151 77.5146 45.106C76.8151 34.5757 68.6414 26.0667 58.2543 24.8885L71.5902 50.2271C71.8684 50.7508 71.807 51.389 71.4307 51.8431L64.828 59.7548C64.6112 60.0167 64.4925 60.3521 64.4925 60.6876V65.4575C64.4925 66.2594 63.838 66.9139 63.0362 66.9139H48.4886C47.6868 66.9139 47.0323 66.2593 47.0323 65.4575V60.6876C47.0323 60.3521 46.9178 60.0167 46.6969 59.7548L40.0942 51.8431C39.7178 51.3931 39.6564 50.7508 39.9346 50.2271L53.2705 24.8885C42.8837 26.0667 34.7098 34.5757 34.0102 45.106C34.7793 45.151 35.3929 45.7769 35.3929 46.546C35.3929 47.3478 34.7384 48.0023 33.9366 48.0023H31.028C30.2262 48.0023 29.5717 47.3478 29.5717 46.546C29.5717 45.7442 30.2262 45.0897 31.028 45.0897H31.1017C31.8585 32.1297 42.6048 21.8162 55.7575 21.8162C68.9059 21.8162 79.6561 32.1294 80.4133 45.0897H80.4869C81.2887 45.0897 81.9432 45.7442 81.9432 46.546C81.9432 47.3478 81.2887 48.0023 80.4869 48.0023H80.4968Z" fill="url(#paint0_linear_254_701)"/>
<path d="M57.2238 48.0024C57.2238 49.9416 54.3152 49.9416 54.3152 48.0024C54.3152 46.0633 57.2238 46.0633 57.2238 48.0024Z" fill="url(#paint1_linear_254_701)"/>
<path d="M57.2237 43.8992C58.9091 44.5088 60.1322 46.1083 60.1322 48.0024C60.1322 50.4038 58.1686 52.3674 55.7672 52.3674C53.3658 52.3674 51.4022 50.4038 51.4022 48.0024C51.4022 46.1124 52.6254 44.5129 54.3108 43.8992V29.1642L42.9668 50.719L48.9313 57.8904C49.0172 57.9927 49.0786 58.0786 49.1358 58.1808H54.3149C55.1167 58.1808 55.7712 58.8354 55.7712 59.6372C55.7712 60.439 55.1167 61.0935 54.3149 61.0935H49.9499V64.0021H61.584V61.0935H60.1276C59.3258 61.0935 58.6713 60.439 58.6713 59.6372C58.6713 58.8354 59.3258 58.1808 60.1276 58.1808H62.3981C62.4554 58.0786 62.5126 57.9927 62.5863 57.8904L68.563 50.719L57.219 29.1642V43.8992H57.2237Z" fill="url(#paint2_linear_254_701)"/>
<defs>
<linearGradient id="paint0_linear_254_701" x1="96.5" y1="48" x2="0.5" y2="48" gradientUnits="userSpaceOnUse">
<stop stop-color="#E92928"/>
<stop offset="0.495192" stop-color="#1063A7"/>
</linearGradient>
<linearGradient id="paint1_linear_254_701" x1="55.7695" y1="46.5481" x2="55.7695" y2="49.4568" gradientUnits="userSpaceOnUse">
<stop stop-color="#E92928"/>
<stop offset="0.495192" stop-color="#1063A7"/>
</linearGradient>
<linearGradient id="paint2_linear_254_701" x1="55.7649" y1="29.1642" x2="55.7649" y2="64.0021" gradientUnits="userSpaceOnUse">
<stop stop-color="#E92928"/>
<stop offset="0.495192" stop-color="#1063A7"/>
</linearGradient>
</defs>
</svg>
