<svg width="79" height="96" viewBox="0 0 79 96" fill="none" xmlns="http://www.w3.org/2000/svg">
<path d="M16.2027 26.1812H15.2455C14.1819 26.1812 13.3228 25.2035 13.3228 24.0008C13.3228 22.7941 14.3005 21.8204 15.5032 21.8204H63.5012C64.708 21.8204 65.6816 22.7981 65.6816 24.0008C65.6816 25.2076 64.8184 26.1812 63.7589 26.1812H62.7976C62.2658 26.1812 60.024 26.9339 57.7332 27.6744C53.1555 29.1513 46.9296 30.5462 39.5045 30.5462C35.3237 30.5462 28.7942 30.1044 21.2718 27.6744C18.9768 26.934 16.7391 26.1812 16.2073 26.1812H16.2027Z" fill="url(#paint0_linear_163_131)"/>
<path d="M32.3661 77.8122C31.5111 76.8222 30.6111 75.8486 29.8789 74.8054C28.5739 72.9195 27.5348 70.8904 26.6184 68.8041C25.5057 69.5772 24.3439 70.2645 23.1371 70.8863V79.1131C26.1849 78.4913 29.2735 78.0822 32.3661 77.8122Z" fill="url(#paint1_linear_163_131)"/>
<path d="M46.6309 77.8121C49.7277 78.0821 52.8122 78.4912 55.864 79.1089V70.8822C54.6572 70.2604 53.4954 69.5731 52.3827 68.7999C51.4663 70.8863 50.4272 72.9194 49.1222 74.7972C48.3859 75.8444 47.49 76.8181 46.6309 77.808V77.8121Z" fill="url(#paint2_linear_163_131)"/>
<path d="M60.2285 80.1559V72.8946L58.3099 72.1296C58.2199 72.0928 58.1381 72.0355 58.0481 71.9946V79.6282C58.7763 79.7959 59.5044 79.9637 60.2285 80.1518V80.1559Z" fill="url(#paint3_linear_163_131)"/>
<path d="M20.9563 79.628V71.9944C20.8663 72.0312 20.7845 72.0885 20.6945 72.1294L18.7759 72.8944V80.1557C19.5 79.9675 20.2281 79.7998 20.9563 79.632V79.628Z" fill="url(#paint4_linear_163_131)"/>
<path d="M77.3323 84.3899L75.8923 81.51C74.931 79.5914 73.3192 78.1064 71.3106 77.3209L62.4089 73.766V80.8636C65.1006 81.9518 67.2198 84.0667 68.1319 86.8076L70.2837 93.263C71.6951 93.0176 73.0491 92.8335 74.4973 92.5512C76.8536 92.0726 78.7722 90.6735 78.7722 89.4545C78.7722 88.2313 78.1177 85.965 77.3322 84.3941L77.3323 84.3899Z" fill="url(#paint5_linear_163_131)"/>
<path d="M16.5913 80.8596V73.7661L7.68957 77.321C5.68093 78.1065 4.06919 79.5915 3.10781 81.5101L1.66783 84.39C0.882382 85.9609 0.227844 88.2314 0.227844 89.4504C0.227844 90.6736 2.14643 92.0686 4.50276 92.5471C5.82817 92.8131 7.29685 93.0421 8.70405 93.2876L10.8599 86.8158C11.7804 84.0586 13.8994 81.9354 16.5872 80.8555L16.5913 80.8596Z" fill="url(#paint6_linear_163_131)"/>
<path d="M60.7605 82.5247C46.9084 78.6916 32.0834 78.6916 18.2114 82.5329C15.72 83.2243 13.7442 85.0856 12.9341 87.5156L10.8765 93.6805C19.2095 95.0305 28.794 96 39.496 96C47.4977 96 57.2502 95.3781 68.1029 93.6355L66.0575 87.4991C65.2516 85.0814 63.2716 83.2242 60.7558 82.5246L60.7605 82.5247Z" fill="url(#paint7_linear_163_131)"/>
<path d="M65.6816 39.2719C65.6816 37.0179 64.7734 34.9888 63.3579 33.4302C62.9938 37.6437 61.8647 42.5692 60.0689 47.364C63.3457 46.1163 65.6816 42.9864 65.6816 39.2719Z" fill="url(#paint8_linear_163_131)"/>
<path d="M13.3186 39.2718C13.3186 42.9864 15.6545 46.1159 18.9313 47.3636C17.1354 42.5691 16.0063 37.6438 15.6423 33.4298C14.2268 34.9884 13.3186 37.0219 13.3186 39.2718Z" fill="url(#paint9_linear_163_131)"/>
<path d="M61.3166 13.0904C61.3043 13.0372 61.2921 12.9881 61.2798 12.9349C60.0566 7.63316 55.9044 3.38275 50.7171 1.73866C45.9186 0.216887 41.8318 0 39.4958 0C35.3762 0 31.7763 0.687264 28.8388 1.56681C23.4143 3.19498 18.9717 7.43722 17.7075 12.9599C17.6993 13.0049 17.6871 13.0459 17.6789 13.0909C17.1102 15.6558 17.1471 17.8894 17.3434 19.6362H61.6519C61.8442 17.8894 61.8852 15.6553 61.3166 13.0904ZM53.679 15.2708C53.679 17.0749 52.2104 18.5435 50.4063 18.5435H28.5897C26.7856 18.5435 25.3171 17.0749 25.3171 15.2708V10.9058C25.3171 9.10167 26.7856 7.6331 28.5897 7.6331H50.4063C52.2104 7.6331 53.679 9.10167 53.679 10.9058V15.2708Z" fill="url(#paint10_linear_163_131)"/>
<path d="M28.5897 9.81763H50.4062C51.0076 9.81763 51.4985 10.419 51.4985 10.9099V15.2749C51.4985 15.8763 51.0117 16.3672 50.4062 16.3672H28.5897C27.9884 16.3672 27.4974 15.7658 27.4974 15.2749V10.9099C27.4974 10.3086 27.9842 9.81763 28.5897 9.81763Z" fill="url(#paint11_linear_163_131)"/>
<path d="M58.4042 29.7481C52.276 31.724 45.9188 32.7263 39.5001 32.7263C33.0775 32.7263 26.7162 31.7241 20.596 29.7481L19.7083 29.4618C19.1274 29.2736 18.4647 29.0609 17.8511 28.8686C17.802 29.429 17.6833 29.9813 17.6833 30.5459C17.6833 42.5894 26.4091 65.4531 39.4999 65.4531C52.5906 65.4531 61.3164 42.5894 61.3164 30.5459C61.3164 29.9772 61.1937 29.4291 61.1446 28.8645C60.5228 29.065 59.8355 29.2859 59.2301 29.4822L58.3996 29.7522L58.4042 29.7481ZM44.5364 53.2214C43.1005 54.3382 41.3087 54.9559 39.5005 54.9559C37.6882 54.9559 35.9006 54.3382 34.4647 53.2214C33.9901 52.8491 33.9083 52.166 34.2765 51.6874C34.6488 51.2128 35.3319 51.1228 35.8105 51.4992C37.9091 53.1437 41.0959 53.1437 43.1904 51.4992C43.665 51.1228 44.3482 51.2128 44.7245 51.6874C45.0967 52.1619 45.0109 52.8492 44.5364 53.2214Z" fill="url(#paint12_linear_163_131)"/>
<path d="M30.5816 64.4836C30.3975 65.355 30.0457 66.1854 29.3749 66.7623C29.0762 67.0241 28.7285 67.2205 28.4217 67.47C29.3135 69.5972 30.3526 71.659 31.6699 73.5572C32.6558 74.9645 33.8053 76.3185 35.0284 77.6153C38.0107 77.4517 40.997 77.4517 43.9752 77.6153C45.1984 76.3185 46.3478 74.9645 47.3337 73.5531C48.651 71.6549 49.686 69.5932 50.5819 67.47C50.2751 67.2205 49.9274 67.0282 49.6287 66.7623C48.9579 66.1855 48.606 65.355 48.422 64.4836C45.7466 66.4309 42.7725 67.6336 39.5039 67.6336C36.2353 67.6336 33.2654 66.4268 30.5859 64.4836H30.5816Z" fill="url(#paint13_linear_163_131)"/>
<defs>
<linearGradient id="paint0_linear_163_131" x1="13.3228" y1="26.1833" x2="65.6816" y2="26.1833" gradientUnits="userSpaceOnUse">
<stop stop-color="#E92928"/>
<stop offset="0.5" stop-color="#1063A7"/>
</linearGradient>
<linearGradient id="paint1_linear_163_131" x1="23.1371" y1="73.9586" x2="32.3661" y2="73.9586" gradientUnits="userSpaceOnUse">
<stop stop-color="#E92928"/>
<stop offset="0.5" stop-color="#1063A7"/>
</linearGradient>
<linearGradient id="paint2_linear_163_131" x1="46.6309" y1="73.9544" x2="55.864" y2="73.9544" gradientUnits="userSpaceOnUse">
<stop stop-color="#E92928"/>
<stop offset="0.5" stop-color="#1063A7"/>
</linearGradient>
<linearGradient id="paint3_linear_163_131" x1="58.0481" y1="76.0753" x2="60.2285" y2="76.0753" gradientUnits="userSpaceOnUse">
<stop stop-color="#E92928"/>
<stop offset="0.5" stop-color="#1063A7"/>
</linearGradient>
<linearGradient id="paint4_linear_163_131" x1="18.7759" y1="76.075" x2="20.9563" y2="76.075" gradientUnits="userSpaceOnUse">
<stop stop-color="#E92928"/>
<stop offset="0.5" stop-color="#1063A7"/>
</linearGradient>
<linearGradient id="paint5_linear_163_131" x1="62.4089" y1="83.5145" x2="78.7722" y2="83.5145" gradientUnits="userSpaceOnUse">
<stop stop-color="#E92928"/>
<stop offset="0.5" stop-color="#1063A7"/>
</linearGradient>
<linearGradient id="paint6_linear_163_131" x1="0.227844" y1="83.5269" x2="16.5913" y2="83.5269" gradientUnits="userSpaceOnUse">
<stop stop-color="#E92928"/>
<stop offset="0.5" stop-color="#1063A7"/>
</linearGradient>
<linearGradient id="paint7_linear_163_131" x1="10.8765" y1="87.8254" x2="68.1029" y2="87.8254" gradientUnits="userSpaceOnUse">
<stop stop-color="#E92928"/>
<stop offset="0.5" stop-color="#1063A7"/>
</linearGradient>
<linearGradient id="paint8_linear_163_131" x1="60.0689" y1="40.3971" x2="65.6816" y2="40.3971" gradientUnits="userSpaceOnUse">
<stop stop-color="#E92928"/>
<stop offset="0.5" stop-color="#1063A7"/>
</linearGradient>
<linearGradient id="paint9_linear_163_131" x1="13.3186" y1="40.3967" x2="18.9313" y2="40.3967" gradientUnits="userSpaceOnUse">
<stop stop-color="#E92928"/>
<stop offset="0.5" stop-color="#1063A7"/>
</linearGradient>
<linearGradient id="paint10_linear_163_131" x1="17.2129" y1="9.81811" x2="61.7807" y2="9.81811" gradientUnits="userSpaceOnUse">
<stop stop-color="#E92928"/>
<stop offset="0.5" stop-color="#1063A7"/>
</linearGradient>
<linearGradient id="paint11_linear_163_131" x1="27.4974" y1="13.0924" x2="51.4985" y2="13.0924" gradientUnits="userSpaceOnUse">
<stop stop-color="#E92928"/>
<stop offset="0.5" stop-color="#1063A7"/>
</linearGradient>
<linearGradient id="paint12_linear_163_131" x1="17.6833" y1="47.1588" x2="61.3164" y2="47.1588" gradientUnits="userSpaceOnUse">
<stop stop-color="#E92928"/>
<stop offset="0.5" stop-color="#1063A7"/>
</linearGradient>
<linearGradient id="paint13_linear_163_131" x1="28.4217" y1="71.0495" x2="50.5819" y2="71.0495" gradientUnits="userSpaceOnUse">
<stop stop-color="#E92928"/>
<stop offset="0.5" stop-color="#1063A7"/>
</linearGradient>
</defs>
</svg>
