<svg width="97" height="96" viewBox="0 0 97 96" fill="none" xmlns="http://www.w3.org/2000/svg">
<path fill-rule="evenodd" clip-rule="evenodd" d="M24.4677 60.6122L28.1469 64.2913L44.4051 48.0331C45.5135 46.8998 47.3675 46.8998 48.4759 48.0331C49.5843 49.1415 49.5843 50.9706 48.4759 52.079L32.2177 68.3628L35.8969 72.042L37.1011 71.5545C60.1593 62.6711 78.3182 44.9091 87.8681 22.6839C80.9765 20.9047 75.5886 15.513 73.8052 8.62095C51.6014 18.171 33.8178 36.3298 24.9346 59.388L24.4677 60.6122ZM21.7844 85.8709C22.1553 85.2001 21.9469 84.3667 21.2969 83.9293C20.6511 83.5126 19.7927 83.6501 19.3302 84.2542C16.1385 89.0667 10.8427 92.0709 5.05923 92.3501C5.3384 86.5667 8.32174 81.2706 13.155 78.0791C13.6634 77.5708 13.755 76.7833 13.3634 76.1833C12.9467 75.5833 12.1842 75.35 11.5342 75.6291C9.29253 77.1083 7.41754 78.9583 5.91343 81.0875C5.28842 76.1166 8.94256 71.2125 15.5593 70.2416L27.1466 81.8544C26.1757 88.4461 21.2965 92.1003 16.322 91.4753C18.4304 89.9878 20.3053 88.0917 21.7844 85.8709ZM69.776 26.7081C73.9844 30.9164 73.9844 37.7161 69.776 41.9252C65.5885 46.1127 58.768 46.1127 54.5803 41.9252C50.3719 37.7169 50.3719 30.9172 54.5803 26.7081C58.7678 22.4997 65.5883 22.4997 69.776 26.7081ZM40.7722 76.433L42.2306 96C55.3677 86.3541 61.66 76.0874 61.0552 65.1914C54.8343 69.7039 48.0352 73.4747 40.7722 76.433ZM31.2889 35.4249C20.3971 34.8249 10.1518 41.1124 0.505859 54.2751L20.0729 55.7334C23.0104 48.4501 26.8062 41.6502 31.2899 35.4251L31.2889 35.4249ZM38.1597 74.3039L34.2264 78.2123C33.2764 79.1832 31.7306 79.1623 30.7805 78.2123L18.2685 65.7248C17.3185 64.7748 17.3185 63.204 18.2685 62.254L22.1769 58.3456C33.81 28.1418 60.1311 6.23666 91.6064 0.0873063C92.9939 -0.191862 94.2897 0.203979 95.2855 1.19568C96.2814 2.19152 96.6731 3.50822 96.4189 4.87484C90.2689 36.3501 68.3433 62.6708 38.1597 74.3039Z" fill="url(#paint0_linear_155_511)"/>
<defs>
<linearGradient id="paint0_linear_155_511" x1="96.4942" y1="48" x2="0.505859" y2="48" gradientUnits="userSpaceOnUse">
<stop stop-color="#E92928"/>
<stop offset="0.495192" stop-color="#1063A7"/>
</linearGradient>
</defs>
</svg>
