<svg width="79" height="96" viewBox="0 0 79 96" fill="none" xmlns="http://www.w3.org/2000/svg">
<path d="M76.0523 6.73022L40.0274 0.045704C39.6805 -0.0152347 39.3196 -0.0152347 38.9727 0.045704L2.94786 6.73022C1.59315 6.98335 0.608765 8.16929 0.608765 9.55221V45.4306C0.608765 67.3072 15.4783 87.0848 38.4804 95.8078C38.8039 95.9391 39.1508 96 39.4977 96C39.8446 96 40.1914 95.9391 40.5196 95.8078C63.5265 87.0842 78.3912 67.3072 78.3912 45.4306V9.55221C78.3912 8.16941 77.407 6.98343 76.0523 6.73022ZM70.6849 45.4311C70.6849 63.2623 59.1065 79.3787 40.4778 87.5029C40.1637 87.6342 39.8309 87.7092 39.4934 87.7092C39.1559 87.7092 38.8231 87.6388 38.509 87.5029C19.8846 79.3793 8.30189 63.2491 8.30189 45.4311L8.31127 15.5852C8.31127 14.4227 9.15035 13.4242 10.2894 13.2086L39.0529 7.86941C39.3529 7.82253 39.6529 7.82253 39.9388 7.86941L68.7023 13.2086C69.8414 13.4242 70.6804 14.4226 70.6804 15.5852L70.6849 45.4311ZM10.8755 15.7208V45.4359C10.8755 62.2123 21.8445 77.4143 39.4986 85.1304C57.1522 77.4146 68.1216 62.2075 68.1216 45.4359V15.7208L39.4758 10.4051L10.8755 15.7208Z" fill="url(#paint0_linear_155_504)"/>
<defs>
<linearGradient id="paint0_linear_155_504" x1="39.5" y1="0" x2="39.5" y2="96" gradientUnits="userSpaceOnUse">
<stop stop-color="#E92928"/>
<stop offset="0.495192" stop-color="#1063A7"/>
</linearGradient>
</defs>
</svg>
