<svg width="97" height="96" viewBox="0 0 97 96" fill="none" xmlns="http://www.w3.org/2000/svg">
<path d="M51.167 47.9994C51.167 51.5549 45.8337 51.5549 45.8337 47.9994C45.8337 44.4439 51.167 44.4439 51.167 47.9994Z" fill="black"/>
<path d="M51.167 47.9994C51.167 51.5549 45.8337 51.5549 45.8337 47.9994C45.8337 44.4439 51.167 44.4439 51.167 47.9994Z" fill="url(#paint0_linear_254_709)"/>
<path d="M48.5001 8.88879C26.9895 8.88879 9.3894 26.4889 9.3894 47.9994C9.3894 69.51 26.9895 87.1101 48.5001 87.1101C70.0106 87.1101 87.6107 69.51 87.6107 47.9994C87.6107 26.4889 70.0106 8.88879 48.5001 8.88879ZM46.7223 14.2221C46.7223 13.3332 47.6112 12.4443 48.5001 12.4443C49.3889 12.4443 50.2778 13.3332 50.2778 14.2221V19.5553C50.2778 20.4442 49.3889 21.3331 48.5001 21.3331C47.6112 21.3331 46.7223 20.4442 46.7223 19.5553V14.2221ZM23.4334 22.933C24.1445 22.2219 25.2112 22.2219 25.9223 22.933L29.6555 26.6662C30.3666 27.3774 30.3666 28.444 29.6555 29.1551C29.2999 29.5107 28.7666 29.6884 28.411 29.6884C27.8777 29.6884 27.5221 29.5107 27.1665 29.1551L23.4333 25.4219C22.7222 24.7108 22.7223 23.6441 23.4334 22.933ZM20.0556 49.7774H14.7223C13.8335 49.7774 12.9446 48.8885 12.9446 47.9997C12.9446 47.1108 13.8335 46.2219 14.7223 46.2219H20.0556C20.9445 46.2219 21.8334 47.1108 21.8334 47.9997C21.8334 48.8885 20.9445 49.7774 20.0556 49.7774ZM29.6555 69.3333L25.9223 73.0666C25.5667 73.4221 25.0334 73.5999 24.6778 73.5999C24.1444 73.5999 23.7889 73.4221 23.4333 73.0666C22.7222 72.3554 22.7222 71.2888 23.4333 70.5777L27.1665 66.8445C27.8776 66.1334 28.9443 66.1334 29.6554 66.8445C30.3665 67.5556 30.3666 68.6222 29.6555 69.3333ZM50.2775 81.7782C50.2775 82.6671 49.3886 83.5559 48.4997 83.5559C47.6108 83.5559 46.722 82.6671 46.722 81.7782V76.4449C46.722 75.556 47.6108 74.6672 48.4997 74.6672C49.3886 74.6672 50.2775 75.556 50.2775 76.4449V81.7782ZM48.4997 54.2227C45.6553 54.2227 43.3443 52.2671 42.6332 49.7783H30.7219C29.833 49.7783 28.9442 48.8895 28.9442 48.0006C28.9442 47.1117 29.833 46.2228 30.7219 46.2228H42.6332C43.1665 44.2672 44.7665 42.6673 46.7221 42.1339V26.6672C46.7221 25.7783 47.611 24.8894 48.4998 24.8894C49.3887 24.8894 50.2776 25.7783 50.2776 26.6672V42.1339C52.7664 42.845 54.7219 45.3339 54.7219 48.0005C54.7219 51.3783 51.8775 54.2227 48.4997 54.2227ZM73.5658 73.0663C73.2102 73.4219 72.6769 73.5997 72.3213 73.5997C71.788 73.5997 71.4324 73.4219 71.0768 73.0663L67.3436 69.3331C66.6325 68.622 66.6325 67.5553 67.3436 66.8442C68.0547 66.1331 69.1213 66.1331 69.8324 66.8442L73.5657 70.5775C74.2768 71.2886 74.2769 72.5331 73.5658 73.0663ZM73.5658 25.4224L69.8326 29.1557C69.477 29.5112 68.9437 29.689 68.5881 29.689C68.0548 29.689 67.6992 29.5112 67.3436 29.1557C66.6325 28.4446 66.6325 27.3779 67.3436 26.6668L71.0768 22.9336C71.7879 22.2225 72.8546 22.2225 73.5657 22.9336C74.2768 23.6447 74.2769 24.7113 73.5658 25.4224ZM82.2767 49.7774H76.9435C76.0546 49.7774 75.1657 48.8885 75.1657 47.9997C75.1657 47.1108 76.0546 46.2219 76.9435 46.2219H82.2767C83.1656 46.2219 84.0545 47.1108 84.0545 47.9997C84.0545 48.8885 83.1656 49.7774 82.2767 49.7774Z" fill="black"/>
<path d="M48.5001 8.88879C26.9895 8.88879 9.3894 26.4889 9.3894 47.9994C9.3894 69.51 26.9895 87.1101 48.5001 87.1101C70.0106 87.1101 87.6107 69.51 87.6107 47.9994C87.6107 26.4889 70.0106 8.88879 48.5001 8.88879ZM46.7223 14.2221C46.7223 13.3332 47.6112 12.4443 48.5001 12.4443C49.3889 12.4443 50.2778 13.3332 50.2778 14.2221V19.5553C50.2778 20.4442 49.3889 21.3331 48.5001 21.3331C47.6112 21.3331 46.7223 20.4442 46.7223 19.5553V14.2221ZM23.4334 22.933C24.1445 22.2219 25.2112 22.2219 25.9223 22.933L29.6555 26.6662C30.3666 27.3774 30.3666 28.444 29.6555 29.1551C29.2999 29.5107 28.7666 29.6884 28.411 29.6884C27.8777 29.6884 27.5221 29.5107 27.1665 29.1551L23.4333 25.4219C22.7222 24.7108 22.7223 23.6441 23.4334 22.933ZM20.0556 49.7774H14.7223C13.8335 49.7774 12.9446 48.8885 12.9446 47.9997C12.9446 47.1108 13.8335 46.2219 14.7223 46.2219H20.0556C20.9445 46.2219 21.8334 47.1108 21.8334 47.9997C21.8334 48.8885 20.9445 49.7774 20.0556 49.7774ZM29.6555 69.3333L25.9223 73.0666C25.5667 73.4221 25.0334 73.5999 24.6778 73.5999C24.1444 73.5999 23.7889 73.4221 23.4333 73.0666C22.7222 72.3554 22.7222 71.2888 23.4333 70.5777L27.1665 66.8445C27.8776 66.1334 28.9443 66.1334 29.6554 66.8445C30.3665 67.5556 30.3666 68.6222 29.6555 69.3333ZM50.2775 81.7782C50.2775 82.6671 49.3886 83.5559 48.4997 83.5559C47.6108 83.5559 46.722 82.6671 46.722 81.7782V76.4449C46.722 75.556 47.6108 74.6672 48.4997 74.6672C49.3886 74.6672 50.2775 75.556 50.2775 76.4449V81.7782ZM48.4997 54.2227C45.6553 54.2227 43.3443 52.2671 42.6332 49.7783H30.7219C29.833 49.7783 28.9442 48.8895 28.9442 48.0006C28.9442 47.1117 29.833 46.2228 30.7219 46.2228H42.6332C43.1665 44.2672 44.7665 42.6673 46.7221 42.1339V26.6672C46.7221 25.7783 47.611 24.8894 48.4998 24.8894C49.3887 24.8894 50.2776 25.7783 50.2776 26.6672V42.1339C52.7664 42.845 54.7219 45.3339 54.7219 48.0005C54.7219 51.3783 51.8775 54.2227 48.4997 54.2227ZM73.5658 73.0663C73.2102 73.4219 72.6769 73.5997 72.3213 73.5997C71.788 73.5997 71.4324 73.4219 71.0768 73.0663L67.3436 69.3331C66.6325 68.622 66.6325 67.5553 67.3436 66.8442C68.0547 66.1331 69.1213 66.1331 69.8324 66.8442L73.5657 70.5775C74.2768 71.2886 74.2769 72.5331 73.5658 73.0663ZM73.5658 25.4224L69.8326 29.1557C69.477 29.5112 68.9437 29.689 68.5881 29.689C68.0548 29.689 67.6992 29.5112 67.3436 29.1557C66.6325 28.4446 66.6325 27.3779 67.3436 26.6668L71.0768 22.9336C71.7879 22.2225 72.8546 22.2225 73.5657 22.9336C74.2768 23.6447 74.2769 24.7113 73.5658 25.4224ZM82.2767 49.7774H76.9435C76.0546 49.7774 75.1657 48.8885 75.1657 47.9997C75.1657 47.1108 76.0546 46.2219 76.9435 46.2219H82.2767C83.1656 46.2219 84.0545 47.1108 84.0545 47.9997C84.0545 48.8885 83.1656 49.7774 82.2767 49.7774Z" fill="url(#paint1_linear_254_709)"/>
<path d="M48.5 0C22.0117 0 0.5 21.5106 0.5 48C0.5 74.4894 22.0106 96 48.5 96C74.9894 96 96.5 74.4894 96.5 48C96.5 21.5106 74.9894 0 48.5 0ZM48.5 90.6662C25.0336 90.6662 5.83384 71.4664 5.83384 48C5.83384 24.5336 25.0336 5.33384 48.5 5.33384C71.9664 5.33384 91.1662 24.5336 91.1662 48C91.1662 71.4664 71.9664 90.6662 48.5 90.6662Z" fill="black"/>
<path d="M48.5 0C22.0117 0 0.5 21.5106 0.5 48C0.5 74.4894 22.0106 96 48.5 96C74.9894 96 96.5 74.4894 96.5 48C96.5 21.5106 74.9894 0 48.5 0ZM48.5 90.6662C25.0336 90.6662 5.83384 71.4664 5.83384 48C5.83384 24.5336 25.0336 5.33384 48.5 5.33384C71.9664 5.33384 91.1662 24.5336 91.1662 48C91.1662 71.4664 71.9664 90.6662 48.5 90.6662Z" fill="url(#paint2_linear_254_709)"/>
<defs>
<linearGradient id="paint0_linear_254_709" x1="48.5004" y1="45.3328" x2="48.5004" y2="50.666" gradientUnits="userSpaceOnUse">
<stop stop-color="#E92928"/>
<stop offset="0.495192" stop-color="#1063A7"/>
</linearGradient>
<linearGradient id="paint1_linear_254_709" x1="48.5001" y1="8.88879" x2="48.5001" y2="87.1101" gradientUnits="userSpaceOnUse">
<stop stop-color="#E92928"/>
<stop offset="0.495192" stop-color="#1063A7"/>
</linearGradient>
<linearGradient id="paint2_linear_254_709" x1="48.5" y1="0" x2="48.5" y2="96" gradientUnits="userSpaceOnUse">
<stop stop-color="#E92928"/>
<stop offset="0.495192" stop-color="#1063A7"/>
</linearGradient>
</defs>
</svg>
