<svg width="95" height="96" viewBox="0 0 95 96" fill="none" xmlns="http://www.w3.org/2000/svg">
<path d="M88.9609 32.7559C88.9984 32.4184 89.0218 32.0716 89.0453 31.7482C89.0593 31.7013 89.0593 31.6638 89.0453 31.617C89.139 30.2719 89.1062 28.9314 88.9609 27.5863L94.2898 22.8105C94.6131 22.5105 94.7584 22.0559 94.6366 21.6247C93.9992 19.347 93.0759 17.102 91.9136 14.9883C91.8667 14.904 91.8058 14.8196 91.7355 14.7493C91.7355 14.7352 91.7214 14.7259 91.7121 14.7259V14.7118C91.5808 14.5806 91.4496 14.4962 91.2903 14.4493C91.145 14.3884 90.9903 14.365 90.8216 14.379L83.6696 14.7259C83.3228 14.2806 82.9619 13.8869 82.6385 13.526C82.4089 13.287 82.1839 13.0339 81.9449 12.8043C81.3216 12.1809 80.6982 11.6045 80.0374 11.0889L80.4077 3.92746C80.4311 3.68844 80.3608 3.43535 80.2155 3.23383C80.178 3.16353 80.1218 3.10259 80.0608 3.04167V3.0276H80.0468V3.01355C79.9624 2.92918 79.8687 2.86826 79.7843 2.80732C77.6613 1.63094 75.4397 0.707649 73.1854 0.0703084C72.7542 -0.0515446 72.2996 0.0843697 71.9996 0.417127L67.1863 5.72258C66.9004 5.68508 66.6098 5.66165 66.3474 5.65228C65.1944 5.55854 64.0321 5.54448 62.9026 5.63822C62.6167 5.65228 62.3261 5.67571 62.0402 5.70852L57.255 0.379669C56.9691 0.0562839 56.5098 -0.0749516 56.0693 0.0422221C53.8009 0.679623 51.5559 1.5889 49.4329 2.75584C49.3485 2.80271 49.2641 2.86363 49.1938 2.93394C49.1938 2.948 49.1798 2.948 49.1704 2.95737C49.1704 2.95737 49.1704 2.97143 49.1563 2.97143C49.0345 3.09329 48.9501 3.22452 48.9033 3.37918C48.8423 3.52446 48.8189 3.67913 48.8189 3.84785L49.1657 10.9998C48.5049 11.5294 47.8722 12.1059 47.2582 12.7152C47.0192 12.9542 46.7896 13.1932 46.574 13.4229C46.2272 13.7931 45.8803 14.1915 45.5288 14.6227L38.3674 14.2524C38.1284 14.2384 37.8753 14.3134 37.6597 14.4446C37.5988 14.4915 37.5285 14.5383 37.4675 14.5993L37.4535 14.6133C37.3691 14.6977 37.3082 14.7914 37.2473 14.8758C36.0615 16.9989 35.1476 19.2204 34.5102 21.4748C34.3884 21.906 34.5243 22.3606 34.8477 22.6746L40.1531 27.4738C40.0079 28.7955 39.975 30.15 40.0594 31.5045V31.6263C40.0828 31.9638 40.1063 32.3106 40.1438 32.648L34.829 37.4239C34.5056 37.7098 34.3603 38.1691 34.4821 38.6096C35.1195 40.878 36.0288 43.123 37.2051 45.2461C37.4207 45.6304 37.8285 45.86 38.2831 45.846L45.4445 45.5085C45.9601 46.1553 46.5506 46.7927 47.1599 47.4301C47.7739 48.0441 48.4066 48.6159 49.0815 49.1455L48.6972 56.2975C48.6738 56.7521 48.9128 57.1739 49.2971 57.3895C51.4342 58.5752 53.6511 59.5032 55.9195 60.136C56.3507 60.2578 56.8053 60.1219 57.1052 59.7985L61.9279 54.4837C63.6198 54.6759 65.3493 54.6899 67.0505 54.4978L71.8497 59.8266C72.0794 60.0797 72.3887 60.2203 72.7121 60.2203C72.8199 60.2203 72.9277 60.1969 73.0261 60.1734C75.2945 59.536 77.5394 58.6268 79.6625 57.4505C80.0468 57.2349 80.2859 56.8131 80.2624 56.3725L79.9156 49.2111C80.5858 48.6815 81.2232 48.105 81.8372 47.5051C82.4746 46.8677 83.037 46.2443 83.5666 45.5834L90.7186 45.9537C91.1732 45.9771 91.581 45.7381 91.8106 45.3538C92.9964 43.2307 93.9243 40.9998 94.5571 38.7314C94.679 38.3096 94.543 37.8456 94.2197 37.5457L88.9609 32.7559ZM74.7791 40.6953C71.9342 43.4418 68.2505 44.8103 64.5667 44.8103C60.7142 44.8103 56.8616 43.2965 53.984 40.311C48.3552 34.4806 48.5239 25.1585 54.3542 19.5206C60.1846 13.8827 69.5066 14.0605 75.1446 19.8909C80.7921 25.7493 80.6142 35.0705 74.7791 40.6953Z" fill="url(#paint0_linear_163_112)"/>
<path d="M41.6751 75.504L46.6666 73.9433C47.0977 73.812 47.4117 73.4512 47.4821 73.0059C47.7586 71.1828 47.8289 69.3596 47.6977 67.5599C47.6602 67.1146 47.3836 66.7303 46.9759 66.5663L42.1297 64.6213C42.0829 64.415 42.0219 64.2276 41.961 64.0213C41.9469 63.9839 41.9376 63.951 41.9235 63.9135C41.647 62.9903 41.2861 62.0764 40.869 61.214L43.306 56.5928C43.5216 56.2085 43.4841 55.7304 43.2217 55.3789C42.1672 53.9166 40.9298 52.5716 39.5379 51.3576C39.4535 51.2873 39.3692 51.2264 39.2848 51.1795C39.2614 51.1655 39.2379 51.1561 39.2145 51.142H39.2005C39.0552 51.0811 38.9146 51.0577 38.7693 51.0577H38.6849C38.5537 51.0717 38.4318 51.1045 38.3147 51.1514L33.5014 53.2042C33.1874 53.012 32.878 52.8573 32.5874 52.698C32.3578 52.5761 32.1328 52.459 31.8938 52.3605C31.3408 52.1075 30.7643 51.8825 30.216 51.6763L28.6693 46.6848C28.5849 46.4458 28.4397 46.2396 28.2475 46.0849C28.1631 46.024 28.0694 45.9771 27.985 45.9396V45.9256H27.971C27.8772 45.8881 27.7929 45.8646 27.7085 45.8553C25.8948 45.5787 24.0717 45.5084 22.286 45.6397C21.8407 45.6772 21.4564 45.9537 21.2924 46.3614L19.3474 51.2076C19.1786 51.2545 19.024 51.292 18.8693 51.3529C18.0304 51.5919 17.1915 51.8919 16.4087 52.2387C16.24 52.309 16.0947 52.3933 15.9401 52.4683L11.3189 50.0313C10.9346 49.8157 10.4565 49.8532 10.0957 50.1156C8.64281 51.1702 7.28834 52.4075 6.07437 53.7994C6.0275 53.8603 5.98063 53.9307 5.94314 54.0056C5.92908 54.0197 5.91971 54.0291 5.91971 54.0431V54.0572H5.90565C5.82129 54.2353 5.7838 54.4181 5.7838 54.5962C5.7838 54.7508 5.82129 54.8961 5.87753 55.0414L7.93029 59.8547C7.63034 60.3609 7.34445 60.8998 7.09136 61.4622C6.98356 61.6919 6.87576 61.9309 6.80547 62.1465C6.66018 62.4605 6.55238 62.7933 6.42115 63.1401L1.42501 64.6914C1.18599 64.7758 0.979775 64.9211 0.825107 65.1132C0.764179 65.1976 0.717312 65.2913 0.670439 65.3757V65.3898C0.632945 65.4835 0.609511 65.5679 0.600136 65.6522C0.323616 67.466 0.253319 69.2891 0.384543 71.0748C0.422037 71.52 0.698557 71.9043 1.1063 72.0684L5.95247 74.0134C6.19149 74.9507 6.51488 75.874 6.89919 76.7599C6.91325 76.7974 6.92262 76.8302 6.93668 76.8536C7.02105 77.0598 7.11478 77.2379 7.19914 77.4301L4.76208 82.0371C4.54649 82.4214 4.58398 82.8995 4.84645 83.2603C5.89159 84.7132 7.12417 86.0536 8.53023 87.2816C8.86768 87.5675 9.33635 87.6425 9.74408 87.4738L14.5574 85.421C15.0635 85.721 15.6025 85.9975 16.179 86.2599C16.7321 86.513 17.3086 86.7521 17.8569 86.9442L19.4176 91.9497C19.5488 92.3715 19.9097 92.6808 20.3549 92.7558C21.5688 92.948 22.792 93.0324 24.0013 93.0324C24.6012 93.0324 25.2011 93.0089 25.787 92.9621C26.2322 92.9246 26.6025 92.648 26.7805 92.2403L28.7349 87.3801C29.8972 87.0942 31.0268 86.6583 32.1188 86.1428L36.7493 88.5799C37.1336 88.7955 37.6117 88.758 37.9725 88.4955C39.4254 87.441 40.7658 86.2037 41.9797 84.8118C42.2655 84.4743 42.3499 84.0056 42.1859 83.5979L40.1331 78.7846C40.4331 78.2691 40.719 77.7301 40.972 77.1629C41.2579 76.6193 41.4736 76.057 41.6751 75.504ZM34.2279 74.2432C32.9203 76.9662 30.6284 79.0191 27.7601 80.0127C26.5463 80.4345 25.2762 80.6501 24.0294 80.6501C22.3516 80.6501 20.669 80.2798 19.1083 79.5112C16.3853 78.2036 14.3324 75.8977 13.3389 73.0435C12.3453 70.1892 12.5234 67.1147 13.8451 64.3917C16.5446 58.777 23.3358 56.4149 28.9651 59.1238C34.5845 61.8515 36.9508 68.628 34.2279 74.2432Z" fill="url(#paint1_linear_163_112)"/>
<path d="M81.7381 74.7361L78.1855 73.5363C78.148 73.4285 78.1246 73.3301 78.0918 73.2364C78.0777 73.2129 78.0543 73.1755 78.0449 73.1426C77.8059 72.5052 77.5294 71.8819 77.2154 71.282L78.762 67.8888C78.9542 67.481 78.8933 67.0124 78.6074 66.6656C77.7544 65.611 76.7607 64.6362 75.6453 63.7973C75.6078 63.7598 75.575 63.7364 75.5234 63.7129L75.5094 63.6989C75.3313 63.6051 75.1485 63.5442 74.9704 63.5442C74.7642 63.5208 74.5861 63.5676 74.408 63.6661L71.0475 65.3345C70.8413 65.2408 70.6632 65.1424 70.4617 65.058C70.2836 64.9877 70.1149 64.9033 69.9227 64.8284C69.5525 64.6737 69.1541 64.5425 68.7604 64.4347L67.4528 60.9196C67.3685 60.6899 67.2138 60.5118 67.031 60.3665C66.9232 60.2962 66.8014 60.2353 66.6842 60.1978H66.6701C66.5998 60.1744 66.5249 60.1603 66.4405 60.1509C65.0626 60.0197 63.68 60.0432 62.3489 60.2353C61.9037 60.2962 61.5428 60.5962 61.4022 61.0133L60.2024 64.5518C60.1321 64.5752 60.0571 64.5987 59.9961 64.6362C59.3494 64.8518 58.7354 65.1142 58.159 65.4142C58.0887 65.4517 58.0137 65.4845 57.9434 65.536L54.5361 63.9753C54.1425 63.7831 53.6597 63.8441 53.3223 64.13C52.2537 64.983 51.2929 65.9907 50.4447 67.0921C50.4072 67.1389 50.3744 67.1999 50.3369 67.2467C50.3369 67.2608 50.3228 67.2702 50.3228 67.2842V67.2983H50.3088C50.2385 67.467 50.1869 67.6358 50.1869 67.8045V67.8654C50.201 68.0341 50.2338 68.1888 50.3088 68.3435L51.9772 71.6899C51.7991 72.0507 51.6304 72.421 51.471 72.8194C51.4007 72.9975 51.3257 73.1803 51.2789 73.349C51.1945 73.5646 51.1242 73.7708 51.0633 73.9864L47.5575 75.2939C47.3279 75.3783 47.1639 75.5236 47.0186 75.6876C46.9576 75.772 46.8967 75.8657 46.8639 75.9641V75.9782C46.817 76.086 46.7936 76.1938 46.7936 76.2922C46.6483 77.6701 46.6717 79.0527 46.8639 80.3979C46.9248 80.829 47.2248 81.204 47.6419 81.3446L51.1944 82.5444C51.41 83.1912 51.6631 83.8145 51.9724 84.4378C51.9865 84.4612 51.9959 84.4987 52.0099 84.5222C52.0568 84.6159 52.1177 84.7143 52.1646 84.7987L50.6039 88.1919C50.4258 88.5996 50.482 89.0683 50.7726 89.4151C51.6256 90.4696 52.6192 91.4445 53.7252 92.2927C54.0861 92.5552 54.5642 92.6067 54.9625 92.4146L58.3089 90.7461C58.6697 90.9383 59.04 91.0929 59.4384 91.2523C59.8227 91.407 60.207 91.5382 60.6148 91.646L61.9223 95.1611C62.077 95.5829 62.4519 95.8828 62.8925 95.9063C63.4924 95.9672 64.0923 96 64.6688 96C65.4609 96 66.2529 95.9391 67.0215 95.8313C67.4668 95.7703 67.8276 95.4704 67.9682 95.0533L69.168 91.5007C69.9367 91.2476 70.6912 90.9243 71.413 90.5306L74.8202 92.0913C75.2139 92.2835 75.6967 92.2225 76.0341 91.9366C77.0886 91.0836 78.0635 90.09 78.9117 88.9745C79.1742 88.6277 79.2257 88.145 79.0336 87.7513L77.3651 84.3909C77.5573 84.03 77.7119 83.6597 77.8713 83.2614C78.04 82.8771 78.1572 82.4927 78.279 82.085L81.7848 80.7915C82.2066 80.6368 82.5065 80.2525 82.5394 79.8073C82.6846 78.4152 82.6612 77.0233 82.4691 75.6782C82.4597 75.2517 82.1599 74.8814 81.7381 74.7361ZM72.7629 81.382C71.3708 84.7284 68.1183 86.7672 64.6875 86.7672C63.5721 86.7672 62.4566 86.5375 61.3646 86.0969C59.204 85.2111 57.5355 83.5193 56.6357 81.368C55.7499 79.2074 55.7499 76.8313 56.6357 74.6847C57.5355 72.5241 59.2134 70.8556 61.3646 69.9698C63.5252 69.084 65.9014 69.084 68.0479 69.9698C70.2086 70.8556 71.877 72.5475 72.7629 74.6987C73.6627 76.8593 73.6627 79.2354 72.7629 81.382Z" fill="url(#paint2_linear_163_112)"/>
<defs>
<linearGradient id="paint0_linear_163_112" x1="64.5594" y1="0" x2="64.5594" y2="60.2203" gradientUnits="userSpaceOnUse">
<stop stop-color="#E92928"/>
<stop offset="0.495192" stop-color="#1063A7"/>
</linearGradient>
<linearGradient id="paint1_linear_163_112" x1="24.0411" y1="45.5757" x2="24.0411" y2="93.0324" gradientUnits="userSpaceOnUse">
<stop stop-color="#E92928"/>
<stop offset="0.495192" stop-color="#1063A7"/>
</linearGradient>
<linearGradient id="paint2_linear_163_112" x1="64.6665" y1="60.0685" x2="64.6665" y2="96" gradientUnits="userSpaceOnUse">
<stop stop-color="#E92928"/>
<stop offset="0.495192" stop-color="#1063A7"/>
</linearGradient>
</defs>
</svg>
