<svg width="33" height="32" viewBox="0 0 33 32" fill="none" xmlns="http://www.w3.org/2000/svg">
<rect x="0.5" y="0.5" width="31.9976" height="31" rx="7.5" fill="#1063A7" fill-opacity="0.04"/>
<rect x="0.5" y="0.5" width="31.9976" height="31" rx="7.5" stroke="white" stroke-opacity="0.24"/>
<rect x="0.5" y="0.5" width="31.9976" height="31" rx="7.5" stroke="url(#paint0_linear_597_146)"/>
<path d="M23.4947 14.6817C23.4944 14.828 23.4361 14.9682 23.3325 15.0716C23.229 15.1749 23.0886 15.233 22.9423 15.233H21.4072V16.2179H22.9434C23.0177 16.2147 23.092 16.2265 23.1616 16.2527C23.2313 16.2789 23.2949 16.319 23.3487 16.3704C23.4024 16.4219 23.4452 16.4837 23.4744 16.5521C23.5037 16.6206 23.5187 16.6942 23.5187 16.7687C23.5187 16.8431 23.5037 16.9167 23.4744 16.9852C23.4452 17.0536 23.4024 17.1154 23.3487 17.1669C23.2949 17.2183 23.2313 17.2584 23.1616 17.2846C23.092 17.3108 23.0177 17.3226 22.9434 17.3194H20.8549C20.7095 17.3183 20.5704 17.2599 20.4678 17.1569C20.3652 17.0539 20.3073 16.9146 20.3068 16.7692V12.5942C20.3068 12.2929 20.5535 12.043 20.858 12.043H22.9455C23.0858 12.0519 23.2174 12.114 23.3135 12.2166C23.4096 12.3192 23.463 12.4546 23.4627 12.5952C23.4625 12.7358 23.4086 12.871 23.3121 12.9733C23.2156 13.0755 23.0837 13.1371 22.9434 13.1455H21.4072V14.1304H22.9434C23.2479 14.1304 23.4947 14.3793 23.4947 14.6817ZM19.1906 17.291C19.1344 17.3096 19.0754 17.3184 19.0163 17.3173C18.9299 17.3188 18.8444 17.2998 18.7668 17.2618C18.6893 17.2238 18.6218 17.168 18.57 17.0989L16.4321 14.1966V16.7692C16.4216 16.9078 16.3591 17.0373 16.2572 17.1318C16.1553 17.2263 16.0214 17.2788 15.8824 17.2788C15.7434 17.2788 15.6096 17.2263 15.5076 17.1318C15.4057 17.0373 15.3432 16.9078 15.3327 16.7692V12.5942C15.3323 12.5223 15.3461 12.4509 15.3734 12.3843C15.4006 12.3177 15.4408 12.2571 15.4915 12.2061C15.5423 12.1551 15.6026 12.1146 15.6691 12.0869C15.7355 12.0593 15.8068 12.0451 15.8787 12.0451C16.0489 12.0451 16.2064 12.1354 16.3114 12.2666L18.466 15.1805V12.5942C18.466 12.2929 18.7128 12.043 19.0173 12.043C19.3187 12.043 19.5686 12.2929 19.5686 12.5942V16.7692C19.5691 16.885 19.5327 16.998 19.4648 17.0918C19.3968 17.1856 19.3008 17.2554 19.1906 17.291ZM13.9929 17.3194C13.8473 17.3186 13.7079 17.2603 13.6051 17.1573C13.5023 17.0542 13.4443 16.9148 13.4437 16.7692V12.5942C13.4437 12.2929 13.6905 12.043 13.995 12.043C14.2984 12.043 14.5452 12.2929 14.5452 12.5942V16.7692C14.5444 16.9152 14.4858 17.055 14.3824 17.1581C14.2789 17.2611 14.1389 17.3191 13.9929 17.3194ZM12.3863 17.3194H10.301C10.1553 17.318 10.0161 17.2597 9.91302 17.1568C9.80996 17.0539 9.75132 16.9148 9.74968 16.7692V12.5942C9.74968 12.2929 9.99959 12.043 10.301 12.043C10.6055 12.043 10.8522 12.2929 10.8522 12.5942V16.2169H12.3895C12.5357 16.2169 12.6759 16.2749 12.7793 16.3783C12.8827 16.4817 12.9407 16.6219 12.9407 16.7681C12.9407 16.9143 12.8827 17.0546 12.7793 17.1579C12.6759 17.2613 12.5357 17.3194 12.3895 17.3194M16.5004 6C10.7115 6 6 9.82528 6 14.5242C6 18.7348 9.73603 22.2619 14.7815 22.9318C15.1227 23.0033 15.5889 23.1576 15.7065 23.4485C15.8115 23.711 15.7758 24.1184 15.7401 24.3935L15.5963 25.286C15.5574 25.5485 15.3863 26.3235 16.514 25.8499C17.6439 25.3784 22.5664 22.2819 24.7715 19.7471C26.2773 18.0933 26.9976 16.4006 26.9976 14.5242C26.9976 9.82528 22.285 6 16.4972 6" fill="#1063A7"/>
<defs>
<linearGradient id="paint0_linear_597_146" x1="16.4988" y1="0" x2="16.4988" y2="32" gradientUnits="userSpaceOnUse">
<stop stop-color="#CCE8FF"/>
<stop offset="1" stop-color="#1063A7"/>
</linearGradient>
</defs>
</svg>
