<svg width="32" height="32" viewBox="0 0 32 32" fill="none" xmlns="http://www.w3.org/2000/svg">
<rect x="0.5" y="0.5" width="31" height="31" rx="15.5" stroke="#1063A7"/>
<rect x="0.5" y="0.5" width="31" height="31" rx="15.5" stroke="url(#paint0_linear_597_155)"/>
<path fill-rule="evenodd" clip-rule="evenodd" d="M19.7933 24.4442C18.5933 24.4001 15.1924 23.9301 11.6308 20.3692C8.06992 16.8076 7.60075 13.4076 7.55575 12.2067C7.48909 10.3767 8.89075 8.59922 10.5099 7.90506C10.7049 7.82086 10.9184 7.78881 11.1295 7.81204C11.3406 7.83527 11.5421 7.91298 11.7141 8.03756C13.0474 9.00922 13.9674 10.4792 14.7574 11.6351C14.9312 11.889 15.0056 12.198 14.9662 12.5032C14.9269 12.8084 14.7766 13.0885 14.5441 13.2901L12.9183 14.4976C12.8397 14.5543 12.7844 14.6376 12.7626 14.732C12.7409 14.8264 12.7541 14.9255 12.7999 15.0109C13.1683 15.6801 13.8233 16.6767 14.5733 17.4267C15.3233 18.1767 16.3674 18.8751 17.0833 19.2851C17.173 19.3354 17.2786 19.3495 17.3785 19.3244C17.4783 19.2993 17.5647 19.2369 17.6199 19.1501L18.6783 17.5392C18.8728 17.2808 19.1599 17.1076 19.4792 17.056C19.7986 17.0045 20.1256 17.0785 20.3916 17.2626C21.5641 18.0742 22.9324 18.9784 23.9341 20.2609C24.0688 20.4341 24.1545 20.6404 24.1822 20.8581C24.2099 21.0758 24.1786 21.2969 24.0916 21.4984C23.3941 23.1259 21.6291 24.5117 19.7933 24.4442Z" fill="#1063A7"/>
<defs>
<linearGradient id="paint0_linear_597_155" x1="16" y1="0" x2="16" y2="32" gradientUnits="userSpaceOnUse">
<stop stop-color="#CCE8FF"/>
<stop offset="1" stop-color="#1063A7"/>
</linearGradient>
</defs>
</svg>
